<svg xmlns="http://www.w3.org/2000/svg" xmlns:xlink="http://www.w3.org/1999/xlink" width="300" zoomAndPan="magnify" viewBox="0 0 224.87999 225" height="300" preserveAspectRatio="xMidYMid meet" version="1.0"><defs><clipPath id="963c92e151"><path d="M 156 74 L 224.761719 74 L 224.761719 113 L 156 113 Z M 156 74 " clip-rule="nonzero"/></clipPath><clipPath id="2599a99521"><path d="M 42 77 L 224.761719 77 L 224.761719 159 L 42 159 Z M 42 77 " clip-rule="nonzero"/></clipPath></defs><g clip-path="url(#963c92e151)"><path fill="#3aa380" d="M 214.789062 75.609375 L 211.804688 77.082031 L 156.507812 103.941406 C 157.710938 106.574219 158.203125 109.464844 157.925781 112.40625 L 211.246094 86.496094 C 215.003906 84.671875 219.179688 84.644531 222.851562 86.011719 C 223.859375 84.824219 224.46875 83.289062 224.46875 81.664062 C 224.46875 80.492188 224.15625 79.332031 223.566406 78.308594 C 221.804688 75.253906 217.9375 74.054688 214.785156 75.613281 Z M 214.789062 75.609375 " fill-opacity="1" fill-rule="nonzero"/></g><g clip-path="url(#2599a99521)"><path fill="#3aa380" d="M 214.757812 93.707031 L 149.492188 125.421875 C 149.464844 125.4375 149.429688 125.429688 149.402344 125.449219 C 146.972656 126.800781 144.214844 127.601562 141.3125 127.601562 C 140.660156 127.601562 140.007812 127.558594 139.34375 127.484375 L 98.25 122.582031 C 96.050781 122.320312 94.480469 120.324219 94.742188 118.125 C 95.003906 115.929688 96.972656 114.386719 99.195312 114.617188 L 140.292969 119.519531 C 144.992188 120.078125 149.328125 116.71875 149.957031 112.03125 C 150.269531 109.695312 149.644531 107.382812 148.195312 105.515625 C 146.75 103.652344 144.65625 102.484375 142.316406 102.214844 L 111.289062 98.664062 C 107.277344 98.203125 103.566406 96.304688 100.839844 93.324219 L 93.074219 84.816406 C 84.632812 75.574219 70.289062 74.367188 60.425781 82.074219 C 59.714844 82.625 58.847656 82.925781 57.957031 82.925781 L 42.394531 82.925781 L 42.394531 137.144531 L 51.238281 137.144531 C 53.085938 137.144531 54.894531 137.484375 56.613281 138.15625 L 98.875 154.652344 C 112.820312 160.09375 128.257812 158.941406 141.230469 151.496094 L 221.078125 105.65625 C 222.652344 104.753906 223.773438 103.300781 224.242188 101.550781 C 224.710938 99.808594 224.476562 97.984375 223.574219 96.417969 C 221.8125 93.347656 217.925781 92.164062 214.757812 93.707031 Z M 214.757812 93.707031 " fill-opacity="1" fill-rule="nonzero"/></g><path fill="#3aa380" d="M 34.378906 73.414062 L 0 73.414062 L 0 148.152344 L 34.378906 148.152344 Z M 20.558594 139.117188 C 20.558594 141.328125 18.769531 143.125 16.550781 143.125 C 14.335938 143.125 12.542969 141.328125 12.542969 139.117188 L 12.542969 104.265625 C 12.542969 102.054688 14.335938 100.257812 16.550781 100.257812 C 18.769531 100.257812 20.558594 102.054688 20.558594 104.265625 Z M 20.558594 85.195312 C 20.558594 87.40625 18.769531 89.203125 16.550781 89.203125 C 14.335938 89.203125 12.542969 87.40625 12.542969 85.195312 L 12.542969 82.023438 C 12.542969 79.808594 14.335938 78.015625 16.550781 78.015625 C 18.769531 78.015625 20.558594 79.808594 20.558594 82.023438 Z M 20.558594 85.195312 " fill-opacity="1" fill-rule="nonzero"/><path fill="#3aa380" d="M 196.304688 66.445312 L 138.492188 93.707031 L 143.226562 94.25 C 146.230469 94.59375 148.980469 95.773438 151.332031 97.542969 L 205.851562 71.039062 C 205.695312 70.398438 205.464844 69.761719 205.121094 69.160156 C 203.363281 66.113281 199.484375 64.910156 196.304688 66.441406 Z M 196.304688 66.445312 " fill-opacity="1" fill-rule="nonzero"/></svg>