<svg xmlns="http://www.w3.org/2000/svg" xmlns:xlink="http://www.w3.org/1999/xlink" width="300" zoomAndPan="magnify" viewBox="0 0 224.87999 225" height="300" preserveAspectRatio="xMidYMid meet" version="1.0"><defs><clipPath id="d9a3bdb182"><path d="M 71 0.0585938 L 204 0.0585938 L 204 143 L 71 143 Z M 71 0.0585938 " clip-rule="nonzero"/></clipPath><clipPath id="a61ab286f2"><path d="M 167 199 L 217.011719 199 L 217.011719 224.9375 L 167 224.9375 Z M 167 199 " clip-rule="nonzero"/></clipPath><clipPath id="61de9a0542"><path d="M 7.589844 45 L 34 45 L 34 96 L 7.589844 96 Z M 7.589844 45 " clip-rule="nonzero"/></clipPath></defs><g clip-path="url(#d9a3bdb182)"><path fill="#f2ad4b" d="M 163.207031 15.433594 L 186.964844 35.355469 C 183.148438 39.910156 183.75 46.71875 188.300781 50.53125 L 124.792969 126.214844 C 120.242188 122.382812 113.453125 122.980469 109.621094 127.554688 L 97.863281 117.691406 C 107.902344 120.625 118.40625 114.855469 121.339844 104.8125 C 123.835938 96.25 120.023438 87.105469 112.175781 82.851562 L 98.679688 75.566406 L 148.011719 16.75 C 152.585938 20.582031 159.390625 19.984375 163.207031 15.433594 Z M 154.203125 0.0585938 L 89.398438 77.300781 L 109.320312 88.082031 C 115.628906 91.496094 117.984375 99.34375 114.59375 105.652344 C 111.65625 111.140625 105.207031 113.757812 99.28125 111.902344 L 71.210938 103.136719 L 118.605469 142.90625 L 203.632812 41.527344 L 154.203125 0.0585938 " fill-opacity="1" fill-rule="nonzero"/></g><g clip-path="url(#a61ab286f2)"><path fill="#f2ad4b" d="M 208.105469 208.230469 C 210.183594 208.210938 211.859375 209.867188 211.878906 211.921875 C 211.878906 211.964844 211.878906 212.003906 211.878906 212.042969 C 211.878906 214.097656 210.222656 215.777344 208.144531 215.777344 C 206.089844 215.777344 204.414062 214.097656 204.414062 212.042969 C 204.390625 209.964844 206.03125 208.269531 208.085938 208.230469 C 208.085938 208.230469 208.105469 208.230469 208.105469 208.230469 Z M 172.050781 199.125 C 169.292969 199.125 167.039062 201.382812 167.039062 204.136719 L 167.039062 219.929688 C 167.039062 222.703125 169.292969 224.941406 172.050781 224.941406 L 212 224.941406 C 214.753906 224.941406 217.011719 222.703125 217.011719 219.929688 L 217.011719 204.136719 C 217.011719 201.382812 214.753906 199.125 212 199.125 L 172.050781 199.125 " fill-opacity="1" fill-rule="nonzero"/></g><g clip-path="url(#61de9a0542)"><path fill="#f2ad4b" d="M 20.699219 83.050781 C 22.777344 82.992188 24.492188 84.609375 24.550781 86.664062 C 24.574219 86.707031 24.574219 86.746094 24.574219 86.785156 C 24.574219 88.84375 22.894531 90.519531 20.820312 90.519531 C 18.761719 90.519531 17.085938 88.863281 17.085938 86.785156 C 17.085938 84.769531 18.683594 83.113281 20.699219 83.050781 Z M 12.933594 45.679688 C 10.15625 45.679688 7.921875 47.914062 7.921875 50.691406 L 7.921875 90.640625 C 7.921875 93.414062 10.15625 95.648438 12.933594 95.648438 L 28.726562 95.648438 C 31.480469 95.648438 33.734375 93.414062 33.734375 90.640625 L 33.734375 50.691406 C 33.734375 47.914062 31.480469 45.679688 28.726562 45.679688 L 12.933594 45.679688 " fill-opacity="1" fill-rule="nonzero"/></g><path fill="#f2ad4b" d="M 168.933594 39.828125 C 168.933594 36.535156 166.261719 33.859375 162.964844 33.859375 C 159.671875 33.839844 156.976562 36.515625 156.976562 39.828125 C 156.976562 43.125 159.652344 45.796875 162.964844 45.820312 C 166.242188 45.820312 168.933594 43.144531 168.933594 39.847656 C 168.933594 39.828125 168.933594 39.828125 168.933594 39.828125 " fill-opacity="1" fill-rule="nonzero"/><path fill="#f2ad4b" d="M 127.109375 60.792969 L 129.207031 62.550781 C 131.480469 61.269531 134.316406 61.53125 136.3125 63.207031 L 133.519531 66.5625 C 132.699219 65.882812 131.480469 65.984375 130.804688 66.800781 C 130.125 67.621094 130.222656 68.816406 131.042969 69.515625 C 131.621094 69.996094 132.421875 70.09375 133.121094 69.777344 L 136.691406 68.296875 C 139.90625 67 143.5625 68.558594 144.878906 71.773438 C 145.417969 73.089844 145.476562 74.527344 145.078125 75.886719 L 147.273438 77.742188 L 144.4375 81.136719 L 142.421875 79.4375 C 140.105469 80.894531 137.132812 80.695312 135.015625 78.941406 L 137.832031 75.605469 C 138.648438 76.285156 139.847656 76.183594 140.527344 75.367188 C 141.226562 74.566406 141.105469 73.351562 140.304688 72.671875 C 139.746094 72.210938 139.007812 72.09375 138.351562 72.351562 L 134.65625 73.847656 C 131.441406 75.167969 127.789062 73.609375 126.472656 70.394531 C 125.890625 68.976562 125.851562 67.398438 126.371094 65.941406 L 124.273438 64.1875 Z M 130.824219 51.769531 C 130.605469 51.769531 130.382812 51.789062 130.164062 51.808594 C 121.71875 52.367188 115.332031 59.652344 115.871094 68.097656 C 115.890625 68.320312 115.910156 68.539062 115.929688 68.757812 C 117.328125 81.535156 128.527344 90.9375 141.34375 90.078125 C 149.789062 89.539062 156.199219 82.234375 155.640625 73.789062 C 155.621094 73.570312 155.597656 73.351562 155.578125 73.128906 C 154.203125 60.632812 143.402344 51.308594 130.824219 51.769531 " fill-opacity="1" fill-rule="nonzero"/><path fill="#f2ad4b" d="M 100.777344 107.109375 L 72.308594 98.226562 C 69.09375 97.226562 66.199219 95.429688 63.863281 93.015625 L 56.816406 85.726562 L 39.546875 90.597656 L 39.546875 50.730469 L 44.4375 50.730469 L 76.121094 41.625 C 78.335938 40.96875 80.691406 40.847656 82.949219 41.265625 L 109.101562 46 L 90.097656 68.71875 L 83.425781 68.71875 C 80.574219 68.71875 78.257812 71.035156 78.257812 73.890625 C 78.257812 75.785156 79.296875 77.523438 80.953125 78.441406 L 106.925781 92.496094 C 110.800781 94.59375 112.238281 99.421875 110.140625 103.296875 C 108.324219 106.628906 104.410156 108.226562 100.777344 107.109375 " fill-opacity="1" fill-rule="nonzero"/><path fill="#f2ad4b" d="M 84.046875 142.246094 L 107.625 158.539062 C 111.816406 161.433594 116.789062 162.96875 121.878906 162.96875 L 153.125 162.96875 C 154.5625 162.96875 155.699219 161.8125 155.699219 160.375 C 155.699219 158.957031 154.5625 157.800781 153.125 157.800781 L 133.480469 157.800781 C 129.167969 157.78125 125.671875 154.265625 125.691406 149.953125 C 125.710938 145.660156 129.1875 142.1875 133.480469 142.167969 L 174.707031 142.167969 C 187.082031 142.167969 198.203125 149.773438 202.714844 161.332031 L 213.835938 189.902344 C 214.355469 191.179688 213.714844 192.636719 212.417969 193.136719 C 212.136719 193.257812 211.820312 193.316406 211.5 193.316406 L 168.875 193.316406 C 165.78125 188.625 160.589844 185.710938 154.960938 185.488281 L 115.851562 185.488281 C 111.039062 185.488281 106.40625 183.773438 102.753906 180.640625 L 73.726562 155.601562 C 70.191406 152.546875 69.792969 147.199219 72.847656 143.664062 C 75.679688 140.410156 80.511719 139.792969 84.046875 142.246094 " fill-opacity="1" fill-rule="nonzero"/></svg>